<svg width="20" height="20" viewBox="0 0 20 20" fill="none"
    xmlns="http://www.w3.org/2000/svg">
    <path d="M9.65516 17.069C9.55683 17.0695 9.45936 17.0507 9.36833 17.0135C9.2773 16.9763 9.19451 16.9216 9.1247 16.8523L3.31952 11.0397C2.59134 10.3039 2.18289 9.31049 2.18289 8.2753C2.18289 7.2401 2.59134 6.24672 3.31952 5.51093C4.0534 4.77913 5.0475 4.36818 6.08389 4.36818C7.12028 4.36818 8.11439 4.77913 8.84826 5.51093L9.65516 6.31783L10.4621 5.51093C11.1959 4.77913 12.19 4.36818 13.2264 4.36818C14.2628 4.36818 15.2569 4.77913 15.9908 5.51093C16.719 6.24672 17.1274 7.2401 17.1274 8.2753C17.1274 9.31049 16.719 10.3039 15.9908 11.0397L10.1856 16.8523C10.1158 16.9216 10.033 16.9763 9.94198 17.0135C9.85095 17.0507 9.75348 17.0695 9.65516 17.069ZM6.08389 5.86208C5.76761 5.86065 5.4542 5.92198 5.16179 6.04254C4.86939 6.16309 4.60381 6.34046 4.38044 6.56438C3.92922 7.01798 3.67593 7.63176 3.67593 8.27156C3.67593 8.91137 3.92922 9.52515 4.38044 9.97875L9.65516 15.2609L14.9299 9.97875C15.3811 9.52515 15.6344 8.91137 15.6344 8.27156C15.6344 7.63176 15.3811 7.01798 14.9299 6.56438C14.4694 6.12933 13.8599 5.88696 13.2264 5.88696C12.5929 5.88696 11.9835 6.12933 11.523 6.56438L10.1856 7.90921C10.1162 7.97923 10.0335 8.03482 9.94248 8.07275C9.85144 8.11068 9.75379 8.13021 9.65516 8.13021C9.55653 8.13021 9.45887 8.11068 9.36783 8.07275C9.27678 8.03482 9.19415 7.97923 9.1247 7.90921L7.78734 6.56438C7.56397 6.34046 7.29839 6.16309 7.00599 6.04254C6.71358 5.92198 6.40017 5.86065 6.08389 5.86208Z" fill="white"/>
</svg>
